# File created by Blade
# Date/Time:  Wed Jan 21 18:34:34 2015
#---------------------------------------------------------
:version 1.10
:name HOM
:units
  mass 1.0
  length 1.000000
  angle deg
:documentation
     Acclaim Skeleton File
:root
   axis xyz
   order TX TY TZ RX RY RZ
   position 0.000000 0.000000 0.000000
   orientation 0 0 0
:bonedata
   begin
      id 1
      name RightUpLeg_dum
      direction -1.000000 0.000000 0.000000
      length 3.693983
      axis 0.0 0.0 0.0 xyz
   end
   begin
      id 2
      name LeftUpLeg_dum
      direction 1.000000 0.000000 0.000000
      length 3.693983
      axis 0.0 0.0 0.0 xyz
   end
   begin
      id 3
      name Spine_dum
      direction 0.000000 1.000000 0.000000
      length 2.392956
      axis 0.0 0.0 0.0 xyz
   end
   begin
      id 4
      name RightUpLeg
      direction 0.000000 -1.000000 0.000000
      length 15.795667
      axis 0.0 0.0 0.0 xyz
      dof rx ry rz
   end
   begin
      id 5
      name RightLeg
      direction 0.000000 -1.000000 0.000000
      length 14.766989
      axis 0.0 0.0 0.0 xyz
      dof rx ry rz
   end
   begin
      id 6
      name RightFoot
      direction 0.000000 -0.258819 0.965926
      length 4.962790
      axis 15.0 0.0 0.0 xyz
      dof rx ry rz
   end
   begin
      id 7
      name RightToeBase
      direction 0.000000 0.000000 1.000000
      length 2.952750
      axis 0.0 0.0 0.0 xyz
      dof rx ry rz
   end
   begin
      id 8
      name LeftUpLeg
      direction 0.000000 -1.000000 0.000000
      length 15.795667
      axis 0.0 0.0 0.0 xyz
      dof rx ry rz
   end
   begin
      id 9
      name LeftLeg
      direction 0.000000 -1.000000 0.000000
      length 14.766989
      axis 0.0 0.0 0.0 xyz
      dof rx ry rz
   end
   begin
      id 10
      name LeftFoot
      direction 0.000000 -0.258819 0.965926
      length 4.962790
      axis 15.0 0.0 0.0 xyz
      dof rx ry rz
   end
   begin
      id 11
      name LeftToeBase
      direction 0.000000 0.000000 1.000000
      length 2.952750
      axis 0.0 0.0 0.0 xyz
      dof rx ry rz
   end
   begin
      id 12
      name Spine
      direction 0.000000 1.000000 0.000000
      length 0.000000
      axis 0.0 0.0 0.0 xyz
      dof rx ry rz
   end
   begin
      id 13
      name Spine_dum1
      direction 0.000000 1.000000 0.000000
      length 13.207411
      axis 0.0 0.0 0.0 xyz
   end
   begin
      id 14
      name Spine_dum2
      direction 0.000000 1.000000 0.000000
      length 13.207411
      axis 0.0 0.0 0.0 xyz
   end
   begin
      id 15
      name Spine_dum3
      direction 0.000000 1.000000 0.000000
      length 19.250100
      axis 0.0 0.0 0.0 xyz
   end
   begin
      id 16
      name RightShoulder
      direction -1.000000 0.000000 0.000000
      length 8.140465
      axis 0.0 0.0 90.0 xyz
      dof rx ry rz
   end
   begin
      id 17
      name RightArm
      direction -1.000000 0.000000 0.000000
      length 10.649840
      axis 0.0 0.0 90.0 xyz
      dof rx ry rz
   end
   begin
      id 18
      name RightForeArm
      direction -1.000000 0.000000 0.000000
      length 8.304624
      axis 0.0 0.0 90.0 xyz
      dof ry rz rx
   end
   begin
      id 19
      name RightHand
      direction -1.000000 0.000000 0.000000
      length 0.000000
      axis 0.0 0.0 90.0 xyz
      dof rx ry rz
   end
   begin
      id 20
      name RightHand_dum1
      direction -1.000000 0.000000 0.000000
      length 3.937000
      axis 0.0 0.0 90.0 xyz
   end
   begin
      id 21
      name RightHand_dum2
      direction 0.000000 0.000000 0.000000
      length 0.000000
      axis 0.0 0.0 90.0 xyz
   end
   begin
      id 22
      name RightHandThumb1
      direction 0.000000 0.000000 1.000000
      length 3.937000
      axis 0.0 0.0 90.0 xyz
      dof rx rz ry
   end
   begin
      id 23
      name LeftShoulder
      direction 1.000000 0.000000 0.000000
      length 8.140465
      axis 0.0 0.0 -90.0 xyz
      dof rx ry rz
   end
   begin
      id 24
      name LeftArm
      direction 1.000000 0.000000 0.000000
      length 10.649840
      axis 0.0 0.0 -90.0 xyz
      dof rx ry rz
   end
   begin
      id 25
      name LeftForeArm
      direction 1.000000 0.000000 0.000000
      length 8.304624
      axis 0.0 0.0 -90.0 xyz
      dof ry rz rx
   end
   begin
      id 26
      name LeftHand
      direction 1.000000 0.000000 0.000000
      length 0.000000
      axis 0.0 0.0 -90.0 xyz
      dof rx ry rz
   end
   begin
      id 27
      name LeftHand_dum1
      direction 1.000000 0.000000 0.000000
      length 3.937000
      axis 0.0 0.0 -90.0 xyz
   end
   begin
      id 28
      name LeftHand_dum2
      direction 0.000000 0.000000 0.000000
      length 0.000000
      axis 0.0 0.0 -90.0 xyz
   end
   begin
      id 29
      name LeftHandThumb1
      direction 0.000000 0.000000 1.000000
      length 3.937000
      axis 0.0 0.0 -90.0 xyz
      dof rx rz ry
   end
   begin
      id 30
      name Head
      direction 0.000000 1.000000 0.000000
      length 4.527550
      axis 0.0 0.0 0.0 xyz
      dof rx ry rz
   end
:hierarchy
   begin
      root RightUpLeg_dum LeftUpLeg_dum Spine_dum
      RightUpLeg_dum RightUpLeg
      LeftUpLeg_dum LeftUpLeg
      Spine_dum Spine
      RightUpLeg RightLeg
      RightLeg RightFoot
      RightFoot RightToeBase
      LeftUpLeg LeftLeg
      LeftLeg LeftFoot
      LeftFoot LeftToeBase
      Spine Spine_dum1 Spine_dum2 Spine_dum3
      Spine_dum1 RightShoulder
      Spine_dum2 LeftShoulder
      Spine_dum3 Head
      RightShoulder RightArm
      RightArm RightForeArm
      RightForeArm RightHand
      RightHand RightHand_dum1 RightHand_dum2
      RightHand_dum2 RightHandThumb1
      LeftShoulder LeftArm
      LeftArm LeftForeArm
      LeftForeArm LeftHand
      LeftHand LeftHand_dum1 LeftHand_dum2
      LeftHand_dum2 LeftHandThumb1
   end

# File created by Blade
# Date/Time:  Wed Jan 21 18:34:41 2015
# Frame Rate: 120.000 fps
#------------------------------------------------------
:FULLY-SPECIFIED
:DEGREES
1134
root 2.676792 32.696568 -5.851210 44.392826 3.947126 2.138730
RightUpLeg -36.377833 -18.960209 8.255969
RightLeg -4.241020 -0.000000 0.000000
RightFoot -9.316983 -1.308645 22.508510
RightToeBase 20.791387 -0.000000 -0.000000
LeftUpLeg -38.093848 11.346421 -4.991816
LeftLeg -0.824609 -0.000000 0.000000
LeftFoot -2.837729 -9.068353 -15.296193
LeftToeBase 3.181403 -0.000000 -0.000000
Spine -48.732578 0.213500 -3.423316
RightShoulder -35.610616 45.631764 -83.090536
RightArm 38.741351 2.242081 19.096202
RightForeArm -3.577902 -0.000000 21.901910
RightHand 14.256339 -0.000000 -20.870490
RightHandThumb1 -24.326973 -0.000000 -32.862282
LeftShoulder -16.122642 -21.948240 55.488925
LeftArm 53.643098 -39.820833 -15.001180
LeftForeArm 31.686487 -0.000000 24.110251
LeftHand -29.546093 -0.000000 19.100571
LeftHandThumb1 -26.253704 0.000000 33.147579
Head 7.987875 -3.834300 8.153861
1135
root 2.678710 32.696857 -5.852015 44.379737 3.945528 2.138988
RightUpLeg -36.361121 -18.947859 8.234144
RightLeg -4.237956 -0.000000 0.000000
RightFoot -9.329921 -1.320815 22.561321
RightToeBase 20.779326 -0.000000 -0.000000
LeftUpLeg -38.078301 11.339929 -4.988277
LeftLeg -0.828446 -0.000000 0.000000
LeftFoot -2.833314 -9.052655 -15.283604
LeftToeBase 3.146701 -0.000000 -0.000000
Spine -48.750222 0.202600 -3.415136
RightShoulder -35.625224 45.665801 -83.148372
RightArm 38.677807 2.200747 19.121888
RightForeArm -3.577273 0.000000 21.955273
RightHand 14.290314 -0.000000 -21.112741
RightHandThumb1 -24.326973 -0.000000 -32.862282
LeftShoulder -16.085114 -21.883084 55.468494
LeftArm 53.588692 -39.723597 -14.782410
LeftForeArm 31.875249 -0.000000 23.786907
LeftHand -29.541685 -0.000000 19.279671
LeftHandThumb1 -26.253704 0.000000 33.147579
Head 8.127404 -3.813396 8.164225
1136
root 2.681007 32.697612 -5.853564 44.367021 3.939449 2.138974
RightUpLeg -36.350906 -18.934681 8.213800
RightLeg -4.232431 -0.000000 0.000000
RightFoot -9.316431 -1.336119 22.560630
RightToeBase 20.750775 -0.000000 -0.000000
LeftUpLeg -38.065518 11.330042 -4.982534
LeftLeg -0.828232 -0.000000 0.000000
LeftFoot -2.830860 -9.041387 -15.280199
LeftToeBase 3.139909 -0.000000 -0.000000
Spine -48.762583 0.188921 -3.398568
RightShoulder -35.675010 45.706317 -83.239281
RightArm 38.630077 2.184753 19.213806
RightForeArm -3.582825 -0.000000 21.984175
RightHand 14.396659 -0.000000 -21.496467
RightHandThumb1 -24.326973 -0.000000 -32.862282
LeftShoulder -16.044907 -21.777950 55.423133
LeftArm 53.552611 -39.698423 -14.551606
LeftForeArm 31.887337 -0.000000 23.452531
LeftHand -29.554676 -0.000000 19.362182
LeftHandThumb1 -26.253704 0.000000 33.147579
Head 8.251433 -3.787818 8.160198
1137
root 2.682847 32.698202 -5.855526 44.357518 3.937445 2.138060
RightUpLeg -36.344281 -18.926595 8.201016
RightLeg -4.229815 -0.000000 0.000000
RightFoot -9.322017 -1.353663 22.550887
RightToeBase 20.810182 -0.000000 -0.000000
LeftUpLeg -38.058573 11.320762 -4.977596
LeftLeg -0.826383 -0.000000 0.000000
LeftFoot -2.833558 -9.027239 -15.275108
LeftToeBase 3.125859 -0.000000 -0.000000
Spine -48.774447 0.175907 -3.385641
RightShoulder -35.719991 45.710858 -83.302941
RightArm 38.624234 2.149399 19.248918
RightForeArm -3.691731 -0.000000 21.943767
RightHand 14.255762 -0.000000 -21.089496
RightHandThumb1 -24.326973 -0.000000 -32.862282
LeftShoulder -16.021669 -21.638593 55.377728
LeftArm 53.544717 -39.697717 -14.276629
LeftForeArm 31.643261 -0.000000 23.052678
LeftHand -29.554723 -0.000000 19.222399
LeftHandThumb1 -26.253704 0.000000 33.147579
Head 8.350552 -3.792867 8.159066
1138
root 2.684216 32.699185 -5.858051 44.342556 3.929897 2.139635
RightUpLeg -36.335646 -18.918893 8.186312
RightLeg -4.225197 -0.000000 0.000000
RightFoot -9.328052 -1.369741 22.547869
RightToeBase 20.804137 -0.000000 -0.000000
LeftUpLeg -38.052116 11.312087 -4.974907
LeftLeg -0.813192 -0.000000 0.000000
LeftFoot -2.836593 -9.014629 -15.295991
LeftToeBase 3.184435 -0.000000 -0.000000
Spine -48.781437 0.158532 -3.372441
RightShoulder -35.723642 45.701870 -83.319554
RightArm 38.637528 2.132237 19.234294
RightForeArm -3.711303 -0.000000 21.879239
RightHand 14.229789 -0.000000 -21.015357
RightHandThumb1 -24.326973 -0.000000 -32.862282
LeftShoulder -16.019274 -21.559023 55.375952
LeftArm 53.557107 -39.626114 -14.091132
LeftForeArm 31.637661 0.000000 22.633795
LeftHand -29.567724 -0.000000 19.273695
LeftHandThumb1 -26.253704 0.000000 33.147579
Head 8.479543 -3.769625 8.177789
1139
root 2.685517 32.700324 -5.861020 44.323320 3.914603 2.134153
RightUpLeg -36.333076 -18.911661 8.177557
RightLeg -4.206269 -0.000000 0.000000
RightFoot -9.319592 -1.374282 22.534022
RightToeBase 20.812978 -0.000000 -0.000000
LeftUpLeg -38.042410 11.324413 -4.977702
LeftLeg -0.804494 -0.000000 0.000000
LeftFoot -2.830448 -9.016618 -15.281085
LeftToeBase 3.157221 -0.000000 -0.000000
Spine -48.773955 0.159297 -3.365672
RightShoulder -35.789783 45.716519 -83.423598
RightArm 38.608816 2.086083 19.277507
RightForeArm -3.661611 -0.000000 21.869703
RightHand 14.256076 -0.000000 -21.259219
RightHandThumb1 -24.326973 -0.000000 -32.862282
LeftShoulder -16.051752 -21.598873 55.447921
LeftArm 53.519239 -39.457321 -13.939228
LeftForeArm 31.470647 0.000000 22.267438
LeftHand -29.494192 -0.000000 19.217897
LeftHandThumb1 -26.253704 0.000000 33.147579
Head 8.563640 -3.751531 8.171689
